<mxfile host="app.diagrams.net" modified="2022-01-07T15:32:16.740Z" agent="5.0 (Windows NT 10.0; Win64; x64) AppleWebKit/537.36 (KHTML, like Gecko) Chrome/96.0.4664.110 Safari/537.36" etag="4l0_4Y7j8JboNmRijFzt" version="16.2.2" type="github">
  <diagram id="iEGIchzCcYc7VJaRuyum" name="Page-1">
    <mxGraphModel dx="1447" dy="1819" grid="1" gridSize="10" guides="1" tooltips="1" connect="1" arrows="1" fold="1" page="1" pageScale="1" pageWidth="827" pageHeight="1169" math="0" shadow="0">
      <root>
        <mxCell id="0" />
        <mxCell id="1" parent="0" />
        <mxCell id="-n7K_DKkgM0FNg-m0orN-8" style="edgeStyle=orthogonalEdgeStyle;rounded=0;orthogonalLoop=1;jettySize=auto;html=1;exitX=1;exitY=0.5;exitDx=0;exitDy=0;entryX=0;entryY=0.5;entryDx=0;entryDy=0;" parent="1" source="-n7K_DKkgM0FNg-m0orN-3" target="-n7K_DKkgM0FNg-m0orN-5" edge="1">
          <mxGeometry relative="1" as="geometry" />
        </mxCell>
        <mxCell id="-n7K_DKkgM0FNg-m0orN-17" style="edgeStyle=orthogonalEdgeStyle;rounded=0;orthogonalLoop=1;jettySize=auto;html=1;exitX=1;exitY=0.5;exitDx=0;exitDy=0;entryX=0;entryY=0.5;entryDx=0;entryDy=0;" parent="1" source="-n7K_DKkgM0FNg-m0orN-3" target="-n7K_DKkgM0FNg-m0orN-16" edge="1">
          <mxGeometry relative="1" as="geometry" />
        </mxCell>
        <mxCell id="-n7K_DKkgM0FNg-m0orN-3" value="F22: Formaliser les données" style="rounded=0;whiteSpace=wrap;html=1;" parent="1" vertex="1">
          <mxGeometry x="320" y="140" width="120" height="60" as="geometry" />
        </mxCell>
        <mxCell id="-n7K_DKkgM0FNg-m0orN-96" style="edgeStyle=orthogonalEdgeStyle;rounded=0;orthogonalLoop=1;jettySize=auto;html=1;exitX=1;exitY=0.5;exitDx=0;exitDy=0;entryX=1;entryY=0.5;entryDx=0;entryDy=0;endArrow=none;endFill=0;" parent="1" source="-n7K_DKkgM0FNg-m0orN-5" target="-n7K_DKkgM0FNg-m0orN-70" edge="1">
          <mxGeometry relative="1" as="geometry">
            <mxPoint x="1550" y="170" as="targetPoint" />
            <Array as="points">
              <mxPoint x="690" y="170" />
              <mxPoint x="690" y="-230" />
            </Array>
          </mxGeometry>
        </mxCell>
        <mxCell id="-n7K_DKkgM0FNg-m0orN-5" value="Respecter le gabarit des comptes rendus" style="rounded=0;whiteSpace=wrap;html=1;" parent="1" vertex="1">
          <mxGeometry x="520" y="140" width="120" height="60" as="geometry" />
        </mxCell>
        <mxCell id="-n7K_DKkgM0FNg-m0orN-52" style="edgeStyle=orthogonalEdgeStyle;rounded=0;orthogonalLoop=1;jettySize=auto;html=1;exitX=1;exitY=0.5;exitDx=0;exitDy=0;entryX=0;entryY=0.5;entryDx=0;entryDy=0;" parent="1" source="-n7K_DKkgM0FNg-m0orN-16" target="-n7K_DKkgM0FNg-m0orN-51" edge="1">
          <mxGeometry relative="1" as="geometry" />
        </mxCell>
        <mxCell id="-n7K_DKkgM0FNg-m0orN-16" value="Faciliter au maximum l&#39;établissement des comptes rendus" style="rounded=0;whiteSpace=wrap;html=1;" parent="1" vertex="1">
          <mxGeometry x="520" y="240" width="120" height="60" as="geometry" />
        </mxCell>
        <mxCell id="-n7K_DKkgM0FNg-m0orN-54" style="edgeStyle=orthogonalEdgeStyle;rounded=0;orthogonalLoop=1;jettySize=auto;html=1;exitX=1;exitY=0.5;exitDx=0;exitDy=0;entryX=0;entryY=0.5;entryDx=0;entryDy=0;" parent="1" source="-n7K_DKkgM0FNg-m0orN-51" target="-n7K_DKkgM0FNg-m0orN-53" edge="1">
          <mxGeometry relative="1" as="geometry" />
        </mxCell>
        <mxCell id="-n7K_DKkgM0FNg-m0orN-57" style="edgeStyle=orthogonalEdgeStyle;rounded=0;orthogonalLoop=1;jettySize=auto;html=1;exitX=1;exitY=0.5;exitDx=0;exitDy=0;entryX=0;entryY=0.5;entryDx=0;entryDy=0;" parent="1" source="-n7K_DKkgM0FNg-m0orN-51" target="-n7K_DKkgM0FNg-m0orN-55" edge="1">
          <mxGeometry relative="1" as="geometry" />
        </mxCell>
        <mxCell id="-n7K_DKkgM0FNg-m0orN-58" style="edgeStyle=orthogonalEdgeStyle;rounded=0;orthogonalLoop=1;jettySize=auto;html=1;exitX=1;exitY=0.5;exitDx=0;exitDy=0;entryX=0;entryY=0.5;entryDx=0;entryDy=0;" parent="1" source="-n7K_DKkgM0FNg-m0orN-51" target="-n7K_DKkgM0FNg-m0orN-56" edge="1">
          <mxGeometry relative="1" as="geometry" />
        </mxCell>
        <mxCell id="-n7K_DKkgM0FNg-m0orN-51" value="Semi-Automatiser la forme/ structure des comptes rendus" style="rounded=0;whiteSpace=wrap;html=1;" parent="1" vertex="1">
          <mxGeometry x="720" y="240" width="120" height="60" as="geometry" />
        </mxCell>
        <mxCell id="-n7K_DKkgM0FNg-m0orN-63" style="edgeStyle=orthogonalEdgeStyle;rounded=0;orthogonalLoop=1;jettySize=auto;html=1;exitX=1;exitY=0.5;exitDx=0;exitDy=0;entryX=0;entryY=0.5;entryDx=0;entryDy=0;" parent="1" source="-n7K_DKkgM0FNg-m0orN-53" target="-n7K_DKkgM0FNg-m0orN-62" edge="1">
          <mxGeometry relative="1" as="geometry" />
        </mxCell>
        <mxCell id="-n7K_DKkgM0FNg-m0orN-53" value="Utiliser l&#39;alphabet phonétique de l&#39;OTAN" style="rounded=0;whiteSpace=wrap;html=1;" parent="1" vertex="1">
          <mxGeometry x="880" y="240" width="120" height="60" as="geometry" />
        </mxCell>
        <mxCell id="-n7K_DKkgM0FNg-m0orN-79" style="edgeStyle=orthogonalEdgeStyle;rounded=0;orthogonalLoop=1;jettySize=auto;html=1;exitX=1;exitY=0.5;exitDx=0;exitDy=0;entryX=0;entryY=0.5;entryDx=0;entryDy=0;" parent="1" source="-n7K_DKkgM0FNg-m0orN-55" target="-n7K_DKkgM0FNg-m0orN-64" edge="1">
          <mxGeometry relative="1" as="geometry">
            <Array as="points">
              <mxPoint x="1230" y="350" />
              <mxPoint x="1230" y="270" />
            </Array>
          </mxGeometry>
        </mxCell>
        <mxCell id="-n7K_DKkgM0FNg-m0orN-55" value="F221 : Etablir une proposition de compte rendu (cf gabarit et exemples) *" style="rounded=0;whiteSpace=wrap;html=1;" parent="1" vertex="1">
          <mxGeometry x="880" y="320" width="120" height="60" as="geometry" />
        </mxCell>
        <mxCell id="-n7K_DKkgM0FNg-m0orN-60" style="edgeStyle=orthogonalEdgeStyle;rounded=0;orthogonalLoop=1;jettySize=auto;html=1;exitX=1;exitY=0.5;exitDx=0;exitDy=0;entryX=0;entryY=0.5;entryDx=0;entryDy=0;" parent="1" source="-n7K_DKkgM0FNg-m0orN-56" target="-n7K_DKkgM0FNg-m0orN-59" edge="1">
          <mxGeometry relative="1" as="geometry" />
        </mxCell>
        <mxCell id="-n7K_DKkgM0FNg-m0orN-56" value="Afficher la phrase à communiquer" style="rounded=0;whiteSpace=wrap;html=1;" parent="1" vertex="1">
          <mxGeometry x="880" y="410" width="120" height="60" as="geometry" />
        </mxCell>
        <mxCell id="-n7K_DKkgM0FNg-m0orN-59" value="écran&lt;br&gt;plateforme visuelle" style="ellipse;whiteSpace=wrap;html=1;" parent="1" vertex="1">
          <mxGeometry x="1150" y="400" width="120" height="80" as="geometry" />
        </mxCell>
        <mxCell id="-n7K_DKkgM0FNg-m0orN-65" style="edgeStyle=orthogonalEdgeStyle;rounded=0;orthogonalLoop=1;jettySize=auto;html=1;exitX=1;exitY=0.5;exitDx=0;exitDy=0;entryX=0;entryY=0.5;entryDx=0;entryDy=0;" parent="1" source="-n7K_DKkgM0FNg-m0orN-62" target="-n7K_DKkgM0FNg-m0orN-64" edge="1">
          <mxGeometry relative="1" as="geometry" />
        </mxCell>
        <mxCell id="-n7K_DKkgM0FNg-m0orN-62" value="Convertir automatiquement" style="rounded=0;whiteSpace=wrap;html=1;" parent="1" vertex="1">
          <mxGeometry x="1080" y="240" width="120" height="60" as="geometry" />
        </mxCell>
        <mxCell id="-n7K_DKkgM0FNg-m0orN-64" value="Algo" style="ellipse;whiteSpace=wrap;html=1;" parent="1" vertex="1">
          <mxGeometry x="1280" y="230" width="120" height="80" as="geometry" />
        </mxCell>
        <mxCell id="-n7K_DKkgM0FNg-m0orN-91" style="edgeStyle=orthogonalEdgeStyle;rounded=0;orthogonalLoop=1;jettySize=auto;html=1;exitX=1;exitY=0.5;exitDx=0;exitDy=0;entryX=0;entryY=0.5;entryDx=0;entryDy=0;" parent="1" source="-n7K_DKkgM0FNg-m0orN-70" target="-n7K_DKkgM0FNg-m0orN-81" edge="1">
          <mxGeometry relative="1" as="geometry" />
        </mxCell>
        <mxCell id="-n7K_DKkgM0FNg-m0orN-92" style="edgeStyle=orthogonalEdgeStyle;rounded=0;orthogonalLoop=1;jettySize=auto;html=1;exitX=1;exitY=0.5;exitDx=0;exitDy=0;entryX=0;entryY=0.5;entryDx=0;entryDy=0;" parent="1" source="-n7K_DKkgM0FNg-m0orN-70" target="-n7K_DKkgM0FNg-m0orN-85" edge="1">
          <mxGeometry relative="1" as="geometry" />
        </mxCell>
        <mxCell id="-n7K_DKkgM0FNg-m0orN-93" style="edgeStyle=orthogonalEdgeStyle;rounded=0;orthogonalLoop=1;jettySize=auto;html=1;exitX=1;exitY=0.5;exitDx=0;exitDy=0;entryX=0;entryY=0.5;entryDx=0;entryDy=0;" parent="1" source="-n7K_DKkgM0FNg-m0orN-70" target="-n7K_DKkgM0FNg-m0orN-87" edge="1">
          <mxGeometry relative="1" as="geometry" />
        </mxCell>
        <mxCell id="-n7K_DKkgM0FNg-m0orN-94" style="edgeStyle=orthogonalEdgeStyle;rounded=0;orthogonalLoop=1;jettySize=auto;html=1;exitX=1;exitY=0.5;exitDx=0;exitDy=0;entryX=0;entryY=0.5;entryDx=0;entryDy=0;" parent="1" source="-n7K_DKkgM0FNg-m0orN-70" target="-n7K_DKkgM0FNg-m0orN-89" edge="1">
          <mxGeometry relative="1" as="geometry" />
        </mxCell>
        <mxCell id="-n7K_DKkgM0FNg-m0orN-70" value="F221 : Etablir une proposition de compte rendu (cf gabarit et exemples)&amp;nbsp;" style="rounded=0;whiteSpace=wrap;html=1;" parent="1" vertex="1">
          <mxGeometry x="740" y="-260" width="120" height="60" as="geometry" />
        </mxCell>
        <mxCell id="-n7K_DKkgM0FNg-m0orN-81" value="Je suis" style="swimlane;" parent="1" vertex="1">
          <mxGeometry x="950" y="-420" width="230" height="100" as="geometry">
            <mxRectangle x="1730" y="160" width="70" height="23" as="alternateBounds" />
          </mxGeometry>
        </mxCell>
        <mxCell id="-n7K_DKkgM0FNg-m0orN-83" value="Nom de l’équipe et position du&lt;br&gt;&amp;nbsp;véhicule maître&lt;br&gt;Identification et position du&lt;br&gt;&amp;nbsp;satellite concerné &lt;br&gt;…" style="text;html=1;align=center;verticalAlign=middle;resizable=0;points=[];autosize=1;strokeColor=none;fillColor=none;" parent="-n7K_DKkgM0FNg-m0orN-81" vertex="1">
          <mxGeometry x="25" y="30" width="180" height="80" as="geometry" />
        </mxCell>
        <mxCell id="-n7K_DKkgM0FNg-m0orN-85" value="Je vois" style="swimlane;" parent="1" vertex="1">
          <mxGeometry x="950" y="-290" width="230" height="120" as="geometry">
            <mxRectangle x="1730" y="160" width="70" height="23" as="alternateBounds" />
          </mxGeometry>
        </mxCell>
        <mxCell id="-n7K_DKkgM0FNg-m0orN-86" value="Raison du compte rendu&lt;br&gt;Identifiant du piège détecté&lt;br&gt;Position du piège détecté&lt;br&gt;Nature du piège détecté&lt;br&gt;…" style="text;html=1;align=center;verticalAlign=middle;resizable=0;points=[];autosize=1;strokeColor=none;fillColor=none;" parent="-n7K_DKkgM0FNg-m0orN-85" vertex="1">
          <mxGeometry x="35" y="30" width="160" height="80" as="geometry" />
        </mxCell>
        <mxCell id="-n7K_DKkgM0FNg-m0orN-87" value="Je fais" style="swimlane;" parent="1" vertex="1">
          <mxGeometry x="950" y="-140" width="230" height="120" as="geometry">
            <mxRectangle x="1730" y="160" width="70" height="23" as="alternateBounds" />
          </mxGeometry>
        </mxCell>
        <mxCell id="-n7K_DKkgM0FNg-m0orN-88" value="Décision de l’équipe&lt;br&gt;Action entreprise&lt;br&gt;…" style="text;html=1;align=center;verticalAlign=middle;resizable=0;points=[];autosize=1;strokeColor=none;fillColor=none;" parent="-n7K_DKkgM0FNg-m0orN-87" vertex="1">
          <mxGeometry x="55" y="45" width="120" height="50" as="geometry" />
        </mxCell>
        <mxCell id="-n7K_DKkgM0FNg-m0orN-89" value="Je demande" style="swimlane;" parent="1" vertex="1">
          <mxGeometry x="950" y="20" width="230" height="120" as="geometry">
            <mxRectangle x="1730" y="600" width="70" height="23" as="alternateBounds" />
          </mxGeometry>
        </mxCell>
        <mxCell id="-n7K_DKkgM0FNg-m0orN-90" value="Désactivation du piège&lt;br/&gt;Code de désactivation&lt;br/&gt;Demande diverses&lt;br/&gt;…" style="text;html=1;align=center;verticalAlign=middle;resizable=0;points=[];autosize=1;strokeColor=none;fillColor=none;" parent="-n7K_DKkgM0FNg-m0orN-89" vertex="1">
          <mxGeometry x="45" y="40" width="140" height="60" as="geometry" />
        </mxCell>
      </root>
    </mxGraphModel>
  </diagram>
</mxfile>
